<svg xmlns="http://www.w3.org/2000/svg" viewBox="0 0 50 50"><defs><style>.cls-1{fill:#2ff8ff;}</style></defs><title>资源 1</title><g id="图层_2" data-name="图层 2"><g id="图层_1-2" data-name="图层 1"><g id="图层_1-2-2" data-name="图层 1-2"><path class="cls-1" d="M25,0A25,25,0,1,0,50,25,25,25,0,0,0,25,0Zm0,43.64A18.64,18.64,0,1,1,43.64,25,18.65,18.65,0,0,1,25,43.64Z"/><path class="cls-1" d="M16.84,29.69a9.69,9.69,0,0,0,8.47,5.37s8.34.56,9.76-8.87h-4l5.79-4.76,6.74,4.71v.06l-2.9,0A15.83,15.83,0,0,1,34,38.05a15.59,15.59,0,0,1-14.35,1.73l-.14-.05a15.11,15.11,0,0,1-9.3-11.15"/><path class="cls-1" d="M32.83,11.18s-6.9-4.21-14-.66a16.7,16.7,0,0,0-9,15.61l-3.3,0h0l8.7,5.51,4.83-5.53-4,0s-.72-5.87,4.15-9.08a9.83,9.83,0,0,1,9.63-.64Z"/><path class="cls-1" d="M25,0A25,25,0,1,0,50,25,25,25,0,0,0,25,0Zm0,43.64A18.64,18.64,0,1,1,43.64,25,18.65,18.65,0,0,1,25,43.64Z"/><path class="cls-1" d="M16.84,29.69a9.69,9.69,0,0,0,8.47,5.37s8.34.56,9.76-8.87h-4l5.79-4.76,6.74,4.71v.06l-2.9,0A15.83,15.83,0,0,1,34,38.05a15.59,15.59,0,0,1-14.35,1.73l-.14-.05a15.11,15.11,0,0,1-9.3-11.15"/><path class="cls-1" d="M32.83,11.18s-6.9-4.21-14-.66a16.7,16.7,0,0,0-9,15.61l-3.3,0h0l8.7,5.51,4.83-5.53-4,0s-.72-5.87,4.15-9.08a9.83,9.83,0,0,1,9.63-.64Z"/></g></g></g></svg>